<svg xmlns="http://www.w3.org/2000/svg" width="33.996" height="33.996" viewBox="0 0 33.996 33.996"><defs><style>.a{fill:#fff;fill-rule:evenodd;}</style></defs><path class="a" d="M17,3.022a52.119,52.119,0,0,1,6.8.189,8.76,8.76,0,0,1,3.211.567,6.633,6.633,0,0,1,3.211,3.211,8.76,8.76,0,0,1,.567,3.211c0,1.7.189,2.266.189,6.8a52.118,52.118,0,0,1-.189,6.8,8.76,8.76,0,0,1-.567,3.211,6.633,6.633,0,0,1-3.211,3.211,8.76,8.76,0,0,1-3.211.567c-1.7,0-2.266.189-6.8.189a52.118,52.118,0,0,1-6.8-.189,8.76,8.76,0,0,1-3.211-.567,6.633,6.633,0,0,1-3.211-3.211A8.76,8.76,0,0,1,3.211,23.8c0-1.7-.189-2.266-.189-6.8a52.119,52.119,0,0,1,.189-6.8,8.76,8.76,0,0,1,.567-3.211A6.783,6.783,0,0,1,5.1,5.1,3.193,3.193,0,0,1,6.988,3.777,8.76,8.76,0,0,1,10.2,3.211,52.119,52.119,0,0,1,17,3.022M17,0A55.8,55.8,0,0,0,10.01.189,11.66,11.66,0,0,0,5.855.944,7.394,7.394,0,0,0,2.833,2.833,7.394,7.394,0,0,0,.944,5.855,8.605,8.605,0,0,0,.189,10.01,55.8,55.8,0,0,0,0,17a55.8,55.8,0,0,0,.189,6.988,11.66,11.66,0,0,0,.755,4.155,7.394,7.394,0,0,0,1.889,3.022,7.394,7.394,0,0,0,3.022,1.889,11.66,11.66,0,0,0,4.155.755A55.8,55.8,0,0,0,17,34a55.8,55.8,0,0,0,6.988-.189,11.66,11.66,0,0,0,4.155-.755,7.924,7.924,0,0,0,4.911-4.911,11.66,11.66,0,0,0,.755-4.155C33.807,22.1,34,21.531,34,17a55.8,55.8,0,0,0-.189-6.988,11.66,11.66,0,0,0-.755-4.155,7.394,7.394,0,0,0-1.889-3.022A7.394,7.394,0,0,0,28.141.944,11.66,11.66,0,0,0,23.986.189,55.8,55.8,0,0,0,17,0m0,8.31A8.548,8.548,0,0,0,8.31,17,8.688,8.688,0,1,0,17,8.31m0,14.354A5.565,5.565,0,0,1,11.332,17,5.565,5.565,0,0,1,17,11.332,5.565,5.565,0,0,1,22.664,17,5.565,5.565,0,0,1,17,22.664M26.064,5.855a2.078,2.078,0,1,0,2.078,2.078,2.1,2.1,0,0,0-2.078-2.078"/></svg>