<svg xmlns="http://www.w3.org/2000/svg" width="1921" height="201" viewBox="0 0 1921 201"><defs><style>.a{fill:#eed0c5;}.a,.b{opacity:0.9;}.b{fill:#2b2b2b;}.c,.d{fill:#fff;}.c{font-size:10px;font-family:ArialMT, Arial;}.e{fill:#707070;font-size:18px;font-family:HelveticaNeue, Helvetica Neue;}.f,.g{fill:none;}.g{stroke:#2b2b2b;}.h{stroke:none;}</style></defs><rect class="a" width="1920" height="142" transform="translate(1)"/><rect class="b" width="1920" height="59" transform="translate(0 142)"/><g transform="translate(328 166)"><text class="c" transform="translate(0 9)"><tspan x="0" y="0">LIVING ROOM</tspan></text></g><text class="c" transform="translate(278 175)"><tspan x="0" y="0">HOME</tspan></text><text class="c" transform="translate(415 175)"><tspan x="0" y="0">BEDROOM</tspan></text><text class="c" transform="translate(487 175)"><tspan x="0" y="0">KITCHEN &amp; DINING</tspan></text><text class="c" transform="translate(1453 175)"><tspan x="0" y="0">CONTACT US</tspan></text><text class="c" transform="translate(1394 176)"><tspan x="0" y="0">ABOUT</tspan></text><g transform="translate(1627 164)"><path class="d" d="M0,370v-2c0-2.2,3.6-4,8-4s8,1.8,8,4v2Zm4-12a4,4,0,1,1,4,4A4,4,0,0,1,4,358Z" transform="translate(0 -354)"/></g><g transform="translate(1541 164)"><path class="d" d="M2,7A4.951,4.951,0,0,1,7,2a4.951,4.951,0,0,1,5,5,4.951,4.951,0,0,1-5,5A4.951,4.951,0,0,1,2,7Zm12.3,8.7a.99.99,0,0,0,1.4-1.4l-3.1-3.1A6.847,6.847,0,0,0,14,7,6.957,6.957,0,0,0,7,0,6.957,6.957,0,0,0,0,7a6.957,6.957,0,0,0,7,7,6.847,6.847,0,0,0,4.2-1.4Z"/></g><text class="e" transform="translate(285 56)"><tspan x="0" y="0">MAYNOOTH</tspan><tspan x="0" y="22">FURNITURE</tspan><tspan x="0" y="44">CO</tspan></text><g transform="translate(1582 162)"><path class="d" d="M6,15.333A1.667,1.667,0,1,0,7.667,17,1.664,1.664,0,0,0,6,15.333ZM1,2V3.667H2.667l3,6.325L4.542,12.033a1.611,1.611,0,0,0-.208.8A1.672,1.672,0,0,0,6,14.5H16V12.833H6.35a.206.206,0,0,1-.208-.208l.025-.1.75-1.358h6.208a1.659,1.659,0,0,0,1.458-.858L17.567,4.9a.814.814,0,0,0,.1-.4.836.836,0,0,0-.833-.833H4.508L3.725,2H1ZM14.333,15.333A1.667,1.667,0,1,0,16,17,1.664,1.664,0,0,0,14.333,15.333Z" transform="translate(-0.167 -0.333)"/><path class="f" d="M0,0H20V20H0Z"/></g><g class="g" transform="translate(279 36)"><rect class="h" width="113" height="71"/><rect class="f" x="0.5" y="0.5" width="112" height="70"/></g></svg>