<svg xmlns="http://www.w3.org/2000/svg" width="20" height="20" viewBox="0 0 20 20"><defs><style>.a{fill:#fff;}.b{fill:none;}</style></defs><path class="a" d="M6,15.333A1.667,1.667,0,1,0,7.667,17,1.664,1.664,0,0,0,6,15.333ZM1,2V3.667H2.667l3,6.325L4.542,12.033a1.611,1.611,0,0,0-.208.8A1.672,1.672,0,0,0,6,14.5H16V12.833H6.35a.206.206,0,0,1-.208-.208l.025-.1.75-1.358h6.208a1.659,1.659,0,0,0,1.458-.858L17.567,4.9a.814.814,0,0,0,.1-.4.836.836,0,0,0-.833-.833H4.508L3.725,2H1ZM14.333,15.333A1.667,1.667,0,1,0,16,17,1.664,1.664,0,0,0,14.333,15.333Z" transform="translate(-0.167 -0.333)"/><path class="b" d="M0,0H20V20H0Z"/></svg>