<svg xmlns="http://www.w3.org/2000/svg" width="40.68" height="32.996" viewBox="0 0 40.68 32.996"><defs><style>.a{fill:#fff;fill-rule:evenodd;}</style></defs><path class="a" d="M50.882,35c15.368,0,23.73-12.656,23.73-23.73v-1.13A18.37,18.37,0,0,0,78.68,5.842,18.761,18.761,0,0,1,73.934,7.2a8.793,8.793,0,0,0,3.616-4.52,20.73,20.73,0,0,1-5.2,2.034A8.071,8.071,0,0,0,66.25,2a8.491,8.491,0,0,0-8.362,8.362,4.406,4.406,0,0,0,.226,1.808A23.366,23.366,0,0,1,40.938,3.356a8.655,8.655,0,0,0-1.13,4.294,8.979,8.979,0,0,0,3.616,7.006,7.619,7.619,0,0,1-3.842-1.13h0a8.26,8.26,0,0,0,6.78,8.136,6.967,6.967,0,0,1-2.26.226,3.846,3.846,0,0,1-1.582-.226,8.562,8.562,0,0,0,7.91,5.876,17.063,17.063,0,0,1-10.4,3.616A6.257,6.257,0,0,1,38,30.928,21.332,21.332,0,0,0,50.882,35" transform="translate(-38 -2)"/></svg>